<svg width="28" height="28" viewBox="0 0 28 28" fill="none" xmlns="http://www.w3.org/2000/svg">
<rect width="28" height="28" fill="white"/>
<path fill-rule="evenodd" clip-rule="evenodd" d="M6 13.898V18.7959L8.87873 18.794C11.5416 18.7923 11.7654 18.7914 11.8629 18.7814C12.4878 18.7172 13.0083 18.5702 13.4538 18.3317C13.888 18.0993 14.2235 17.7891 14.4602 17.401C14.5716 17.2184 14.6739 16.9727 14.7333 16.745C14.7981 16.4966 14.825 16.2972 14.8345 15.9952C14.8647 15.0387 14.5776 14.2538 14.0462 13.8396C13.7938 13.6429 13.4704 13.5213 13.1016 13.4844C13.0478 13.479 12.9852 13.4746 12.9625 13.4746C12.9073 13.4746 12.92 13.4662 12.9953 13.4529C13.2608 13.4059 13.5461 13.2863 13.7702 13.1282C13.8631 13.0627 14.0101 12.9247 14.0811 12.8363C14.3933 12.4476 14.5106 11.9696 14.4543 11.3164C14.3464 10.0664 13.4824 9.23298 12.0961 9.04169C11.8019 9.00109 12.0541 9.00421 8.88213 9.002L6 9V13.898ZM17.0388 10.1789V10.7824H19.2119H21.385V10.1789V9.57534H19.2119H17.0388V10.1789ZM11.6554 10.7717C11.9892 10.879 12.1806 11.154 12.2234 11.5882C12.2327 11.6822 12.2327 11.9043 12.2234 12.009C12.1864 12.426 12.0546 12.6912 11.8199 12.8212C11.7568 12.8561 11.65 12.8921 11.5566 12.91C11.503 12.9202 11.3909 12.9211 9.96016 12.923L8.42133 12.925V11.8347V10.7443L10.001 10.746L11.5806 10.7476L11.6554 10.7717ZM19.0146 11.5007C18.4746 11.5302 18.0332 11.6137 17.6169 11.7652C16.9715 12 16.4518 12.3828 16.047 12.9216C15.6876 13.3998 15.436 13.9985 15.3152 14.6627C15.2689 14.9168 15.2501 15.1182 15.2501 15.3578C15.25 16.4941 15.7003 17.5312 16.4601 18.1446C16.7889 18.4101 17.1012 18.5826 17.5197 18.73C17.9333 18.8757 18.3896 18.9598 18.9398 18.9919C19.0072 18.9958 19.2092 18.9994 19.3887 18.9999C19.7742 19.001 19.9463 18.9895 20.2729 18.9409C21.086 18.8199 21.7343 18.5499 22.183 18.1453C22.4498 17.9047 22.6466 17.6124 22.7655 17.2801C22.8532 17.0349 22.8979 16.7958 22.9064 16.5254L22.9106 16.3943H21.9855H21.0605L21.0526 16.4664C21.015 16.8108 20.7786 17.1048 20.4089 17.2668C20.2179 17.3506 19.9947 17.4049 19.722 17.434C19.5917 17.4479 19.2658 17.4534 19.1383 17.4439C18.7956 17.4182 18.4844 17.3258 18.2325 17.175C17.8399 16.9401 17.6013 16.5642 17.5324 16.072C17.5233 16.0068 17.5083 15.8168 17.5082 15.7639L17.5081 15.7433H20.2412H22.9742L22.9822 15.6594C23.0168 15.2962 23.0003 14.8294 22.9387 14.4288C22.7718 13.3434 22.2746 12.5199 21.4938 12.0358C21.3206 11.9284 21.0952 11.8188 20.9062 11.75C20.422 11.5739 19.9158 11.4949 19.2901 11.4977C19.1573 11.4983 19.0333 11.4996 19.0146 11.5007ZM19.6234 12.9434C19.901 12.9822 20.1035 13.0512 20.2933 13.1717C20.4815 13.2911 20.6315 13.4532 20.7442 13.6587C20.8195 13.7962 20.8739 13.944 20.9088 14.1063C20.9299 14.2041 20.9496 14.3472 20.9497 14.402L20.9497 14.4352H19.2187C17.969 14.4352 17.4877 14.4332 17.4877 14.4282C17.4877 14.4244 17.4982 14.3811 17.511 14.3319C17.5897 14.0289 17.7325 13.7524 17.9276 13.5251C17.953 13.4956 18.012 13.4357 18.0589 13.392C18.3393 13.1303 18.6861 12.9819 19.1201 12.9379C19.1954 12.9303 19.5577 12.9342 19.6234 12.9434ZM11.5899 14.4449C11.8298 14.477 12.0525 14.5792 12.2166 14.7324C12.4385 14.9396 12.561 15.2303 12.5906 15.6201C12.6264 16.0909 12.5248 16.4593 12.2895 16.7122C12.2434 16.7617 12.1372 16.8433 12.0687 16.8817C11.923 16.9636 11.7588 17.0136 11.5392 17.043C11.465 17.0529 11.33 17.054 9.93976 17.0561L8.42133 17.0583V15.7467V14.4352H9.9695C11.3247 14.4352 11.5267 14.4364 11.5899 14.4449Z" fill="#4C4C4C"/>
</svg>
