<svg width="28" height="28" viewBox="0 0 28 28" fill="none" xmlns="http://www.w3.org/2000/svg">
<rect width="28" height="28" fill="white"/>
<path fill-rule="evenodd" clip-rule="evenodd" d="M13.7375 6.02012C12.0948 6.18095 10.5766 6.78613 9.24541 7.81068C8.59716 8.3096 7.75531 9.24725 7.26882 10.0121C7.05871 10.3425 6.64971 11.1795 6.5032 11.579C6.33938 12.0257 6.16478 12.7084 6.07886 13.2381C5.97371 13.8864 5.97371 15.1173 6.07886 15.7656C6.22754 16.6821 6.46274 17.423 6.86531 18.2432C7.30515 19.1394 7.7625 19.7746 8.49487 20.5066C9.22728 21.2385 9.86285 21.6956 10.7595 22.1352C11.5802 22.5375 12.3215 22.7726 13.2385 22.9212C13.8872 23.0263 15.1188 23.0263 15.7675 22.9212C16.6845 22.7726 17.4259 22.5375 18.2466 22.1352C19.1432 21.6956 19.7788 21.2385 20.5112 20.5066C21.2436 19.7746 21.7009 19.1394 22.1407 18.2432C22.4329 17.648 22.5798 17.2579 22.7372 16.6597C22.9468 15.8631 23 15.4264 23 14.5018C23 13.5773 22.9468 13.1406 22.7372 12.3439C22.5798 11.7457 22.4329 11.3556 22.1407 10.7604C21.7009 9.8643 21.2436 9.22909 20.5112 8.4971C19.7788 7.76515 19.1432 7.30806 18.2466 6.86847C17.4267 6.46649 16.6707 6.22668 15.7842 6.0873C15.295 6.0104 14.2028 5.97455 13.7375 6.02012ZM15.5222 7.43397C16.4637 7.56763 17.426 7.91703 18.2456 8.4227C18.567 8.62108 19.0602 8.98638 19.0612 9.02685C19.0619 9.05778 18.8936 9.21186 18.5819 9.46561C18.2355 9.7476 17.6569 10.1471 17.1996 10.4199C16.6919 10.7228 15.5785 11.2759 15.4765 11.2759C15.4246 11.2759 15.3359 11.1466 15.0827 10.7022C14.5304 9.7329 13.7668 8.54423 13.2114 7.78916C13.1123 7.6545 13.0445 7.53238 13.0602 7.51692C13.0855 7.49204 13.5881 7.41053 13.954 7.37192C14.196 7.34637 15.1794 7.38528 15.5222 7.43397ZM11.8177 8.20224C12.36 8.9355 13.1267 10.0972 13.6266 10.9433C14.0267 11.6205 14.1125 11.777 14.0936 11.7959C14.0615 11.8281 13.1905 12.0758 12.6562 12.2048C11.71 12.4332 10.6352 12.6138 9.57817 12.722C9.03431 12.7776 7.59026 12.8587 7.56647 12.8349C7.54075 12.8092 7.73804 12.1654 7.86775 11.8517C8.42283 10.5092 9.30238 9.41519 10.4772 8.60618C10.8143 8.37408 11.5248 7.98401 11.608 7.98537C11.6355 7.98581 11.7298 8.08342 11.8177 8.20224ZM20.2525 10.2699C20.8046 11.0191 21.2082 11.8803 21.4395 12.8031C21.5772 13.3523 21.6873 14.269 21.6157 14.269C21.5969 14.269 21.4077 14.2401 21.1952 14.2048C20.3468 14.0637 20.1933 14.0528 19.0785 14.0545C17.9891 14.056 17.7018 14.0785 16.9419 14.221C16.8519 14.2379 16.8444 14.2278 16.7018 13.8962C16.6208 13.708 16.4448 13.3233 16.3106 13.0414C16.1765 12.7595 16.0705 12.5267 16.0752 12.5241C16.0798 12.5215 16.1959 12.4694 16.3332 12.4084C17.5632 11.8612 18.9389 10.9938 19.8255 10.2064C19.9253 10.1178 20.0249 10.0454 20.047 10.0454C20.069 10.0454 20.1616 10.1464 20.2525 10.2699ZM14.9399 13.3794C15.1372 13.7723 15.506 14.5758 15.4933 14.5853C15.4885 14.5888 15.3518 14.6392 15.1895 14.6972C13.613 15.2609 12.1081 16.156 10.7927 17.3125C10.3601 17.693 9.66336 18.3949 9.33246 18.7837C9.18848 18.9529 9.06036 19.0913 9.04775 19.0913C9.01195 19.0913 8.60322 18.5381 8.42043 18.2422C7.75881 17.1712 7.42561 16.0543 7.36162 14.6931L7.3386 14.2025L7.71798 14.2023C8.5366 14.202 10.0566 14.0725 11.0756 13.9162C12.1625 13.7495 13.6612 13.4009 14.4032 13.1421C14.5588 13.0879 14.7046 13.0424 14.7273 13.041C14.75 13.0396 14.8457 13.1919 14.9399 13.3794ZM19.5985 15.3992C20.2898 15.436 21.4727 15.6032 21.5439 15.6743C21.5526 15.6831 21.5277 15.8381 21.4887 16.0189C21.1518 17.5768 20.2288 19.061 18.9693 20.0703C18.8361 20.177 18.7227 20.2586 18.7174 20.2515C18.712 20.2445 18.6512 19.9693 18.5822 19.64C18.3526 18.5446 17.9836 17.242 17.5823 16.1108C17.4809 15.8252 17.398 15.5732 17.398 15.5509C17.398 15.4922 18.0464 15.4165 18.9287 15.3723C18.9745 15.37 19.2759 15.3821 19.5985 15.3992ZM16.0337 15.8761C16.0337 15.882 16.1242 16.1327 16.2348 16.4332C16.7395 17.8043 17.1734 19.4121 17.4426 20.908L17.4613 21.012L17.1531 21.1339C15.2427 21.8895 13.1252 21.8001 11.3082 20.887C10.785 20.6241 10.0773 20.1508 10.0773 20.0638C10.0773 19.9624 10.9129 19.0521 11.4685 18.5484C12.7609 17.3765 14.1431 16.5223 15.5988 15.9959C15.9228 15.8788 16.0337 15.8482 16.0337 15.8761Z" fill="#4C4C4C"/>
</svg>
