<svg width="28" height="28" viewBox="0 0 28 28" fill="none" xmlns="http://www.w3.org/2000/svg">
<rect width="28" height="28" fill="white"/>
<path fill-rule="evenodd" clip-rule="evenodd" d="M15.675 6.01591C15.6406 6.02256 15.5113 6.04767 15.3875 6.07168C14.922 6.16197 14.4119 6.3942 14.0536 6.67896C13.8134 6.86988 13.4571 7.28197 13.3148 7.53349C13.1186 7.88038 12.9535 8.3172 12.8788 8.68682C12.864 8.76002 12.8386 8.88644 12.8222 8.96776C12.8021 9.06793 12.7891 9.59976 12.7821 10.6164L12.7717 12.1173H11.8858H11V13.5663V15.0154H11.8875H12.775V19.0077V23H14.075H15.375V19.0077V15.0154H16.6342H17.8933L17.9106 14.52C17.9201 14.2476 17.944 13.6388 17.9637 13.1671C17.9833 12.6954 17.9995 12.2662 17.9997 12.2134L18 12.1173H16.6875H15.375L15.3754 10.9122C15.3758 9.60219 15.388 9.45305 15.5158 9.19506C15.5515 9.12296 15.6289 9.02951 15.6924 8.9819C15.9015 8.82508 16.053 8.80512 17.0341 8.80512H17.9207L17.9354 8.59071C17.9592 8.24173 17.9932 6.1308 17.9754 6.10605C17.9401 6.05702 17.0418 5.99663 16.4 6.00015C16.0356 6.00213 15.7094 6.00923 15.675 6.01591Z" fill="#4C4C4C"/>
</svg>
