<svg width="28" height="28" viewBox="0 0 28 28" fill="none" xmlns="http://www.w3.org/2000/svg">
<rect width="28" height="28" fill="white"/>
<path fill-rule="evenodd" clip-rule="evenodd" d="M10.4224 9.03888C8.44672 9.34998 6.81993 10.8281 6.22701 12.8509C6.05398 13.4412 6 13.8329 6 14.4983C6 15.165 6.05422 15.5572 6.22777 16.1457C6.7615 17.9554 8.12653 19.3486 9.83413 19.8264C10.8846 20.1203 12.0527 20.0386 13.0675 19.6002C14.4326 19.0105 15.5345 17.7499 16.0116 16.2324C16.2399 15.5063 16.3225 14.3405 16.1991 13.5879L16.1529 13.3061L13.634 13.2949L11.1151 13.2838V14.1945V15.1052H12.838H14.561L14.5347 15.2461C14.4093 15.918 14.0425 16.6086 13.5374 17.1236C13.0821 17.5879 12.5898 17.8843 11.9851 18.0582C11.5301 18.189 10.7439 18.1895 10.2855 18.0593C9.6002 17.8646 8.90425 17.3897 8.48553 16.8309C8.20296 16.4539 8.04066 16.1379 7.88216 15.656C7.7373 15.2157 7.73661 15.2102 7.73795 14.4983C7.7392 13.8109 7.7443 13.7669 7.86828 13.3711C8.24646 12.1643 9.14251 11.262 10.2855 10.9373C10.7422 10.8075 11.5307 10.8076 11.9801 10.9373C12.3772 11.052 12.8082 11.2717 13.1231 11.5201L13.3644 11.7105L13.9872 11.0743L14.6099 10.4382L14.3437 10.2031C13.6679 9.60619 12.74 9.17704 11.8232 9.03741C11.4916 8.9869 10.7477 8.98768 10.4224 9.03888ZM19.127 12.3523V13.2844H18.2773H17.4275V13.8913V14.4983H18.2773H19.127V15.4087V16.3191H19.6935H20.26V15.4087V14.4983H21.13H22V13.8922V13.2861L21.1401 13.2744L20.2803 13.2627L20.2693 12.3415L20.2584 11.4203H19.6927H19.127V12.3523Z" fill="#4C4C4C"/>
</svg>
