<svg width="28" height="28" viewBox="0 0 28 28" fill="none" xmlns="http://www.w3.org/2000/svg">
<rect width="28" height="28" fill="white"/>
<path fill-rule="evenodd" clip-rule="evenodd" d="M7.43013 6.08852C5.91451 6.58254 5.50115 8.51913 6.6884 9.56414C8.25349 10.9417 10.6568 9.2834 9.92286 7.3323C9.54967 6.34003 8.40724 5.77003 7.43013 6.08852ZM18.0511 11.4162C17.4925 11.5183 17.0284 11.6979 16.5888 11.982C16.1988 12.2341 15.5663 12.8645 15.5663 13.0012C15.5663 13.035 15.5353 13.0626 15.4974 13.0626C15.4593 13.0626 15.4193 12.7511 15.408 12.3658L15.3876 11.6689L13.69 11.6497L11.9924 11.6306V17.3153V23L13.7614 22.9808L15.5305 22.9618L15.5691 19.531C15.6108 15.829 15.6101 15.8356 16.0149 15.2299C16.3577 14.7172 16.8427 14.4916 17.5983 14.4937C18.4892 14.4961 18.9011 14.7383 19.2129 15.4431C19.4448 15.9674 19.4949 16.7756 19.4963 20.0135L19.4976 22.9975H21.2488H23L22.9987 19.3702C22.9974 15.608 22.952 14.848 22.6733 13.9203C22.3003 12.6788 21.4665 11.8572 20.2481 11.5306C19.7348 11.393 18.523 11.3299 18.0511 11.4162ZM6.27411 17.3153V22.9975H8.02533H9.77654V17.3153V11.6332H8.02533H6.27411V17.3153Z" fill="#4C4C4C"/>
</svg>
