<svg width="28" height="28" viewBox="0 0 28 28" fill="none" xmlns="http://www.w3.org/2000/svg">
<rect width="28" height="28" fill="white"/>
<path fill-rule="evenodd" clip-rule="evenodd" d="M17.1959 7.04501C16.8431 7.11697 16.4752 7.25354 16.1642 7.42797C15.1997 7.969 14.4934 9.01861 14.3237 10.1632C14.2771 10.4776 14.2781 11.1154 14.3257 11.398C14.3463 11.521 14.3568 11.6287 14.349 11.6372C14.3249 11.6631 13.6106 11.5809 13.1973 11.5048C10.9573 11.0919 8.92176 9.87858 7.41067 8.05553C7.26245 7.87669 7.13143 7.72582 7.11956 7.72025C7.0955 7.70894 6.84803 8.27356 6.79052 8.47101C6.63158 9.01662 6.60048 9.81077 6.71579 10.3804C6.80061 10.7993 6.96947 11.2492 7.1765 11.6078C7.32673 11.8681 7.87322 12.5076 8.05709 12.6383C8.18821 12.7315 8.11094 12.7515 7.80438 12.7037C7.48061 12.6533 7.04681 12.5147 6.81194 12.3868C6.72501 12.3394 6.64358 12.3007 6.63095 12.3007C6.57931 12.3007 6.65226 13.0196 6.7351 13.3267C7.07057 14.5706 7.93434 15.5493 9.03117 15.9285C9.15111 15.9699 9.25365 16.0201 9.25901 16.04C9.27942 16.1153 8.8223 16.172 8.33439 16.1547C7.77721 16.135 7.8081 16.0901 8.02944 16.5974C8.52761 17.7393 9.57528 18.5541 10.7383 18.704C10.9235 18.7279 11.075 18.7586 11.075 18.7723C11.075 18.8312 10.3146 19.3378 9.86445 19.5787C8.82817 20.1334 7.77734 20.3808 6.5791 20.3522C6.25355 20.3445 5.99301 20.3483 6.00014 20.3607C6.02058 20.3964 6.571 20.7308 6.90503 20.9105C7.88779 21.4391 9.02018 21.7973 10.2038 21.9539C10.7263 22.023 12.1286 22.0125 12.65 21.9355C14.938 21.598 16.7804 20.6383 18.314 18.9851C20.1691 16.9854 21.2326 14.3087 21.3185 11.4231L21.3397 10.7082L21.611 10.4796C22.0704 10.0924 23.0381 8.94599 22.9988 8.83562C22.9929 8.81896 22.854 8.86123 22.6903 8.92952C22.1882 9.13888 21.1617 9.39652 21.1617 9.31313C21.1617 9.29568 21.2073 9.2524 21.263 9.21696C21.4621 9.09011 21.9703 8.52939 22.15 8.23819C22.3334 7.94104 22.5142 7.55742 22.5531 7.38277C22.5737 7.29046 22.5639 7.29372 22.1585 7.51262C21.6767 7.77282 21.2937 7.92908 20.7764 8.07648C20.5736 8.13425 20.3967 8.18162 20.3833 8.18176C20.3698 8.18187 20.257 8.08255 20.1327 7.96105C19.7203 7.55811 19.2144 7.26687 18.6553 7.11062C18.2396 6.99443 17.5876 6.96509 17.1959 7.04501Z" fill="#4D4D4D"/>
</svg>
